<svg width="24" height="24" viewBox="0 0 24 24" fill="none" xmlns="http://www.w3.org/2000/svg">
<path fill-rule="evenodd" clip-rule="evenodd" d="M7.20005 2.40002C6.56353 2.40002 5.95308 2.65288 5.50299 3.10297C5.05291 3.55306 4.80005 4.1635 4.80005 4.80002V19.2C4.80005 19.8365 5.05291 20.447 5.50299 20.8971C5.95308 21.3472 6.56353 21.6 7.20005 21.6H16.8C17.4366 21.6 18.047 21.3472 18.4971 20.8971C18.9472 20.447 19.2 19.8365 19.2 19.2V8.89682C19.1999 8.26036 18.947 7.65001 18.4968 7.20002L14.4 3.10322C13.9501 2.65311 13.3397 2.40016 12.7032 2.40002H7.20005ZM9.60005 14.4C9.60005 14.0818 9.47362 13.7765 9.24858 13.5515C9.02353 13.3265 8.71831 13.2 8.40005 13.2C8.08179 13.2 7.77656 13.3265 7.55152 13.5515C7.32648 13.7765 7.20005 14.0818 7.20005 14.4V18C7.20005 18.3183 7.32648 18.6235 7.55152 18.8486C7.77656 19.0736 8.08179 19.2 8.40005 19.2C8.71831 19.2 9.02353 19.0736 9.24858 18.8486C9.47362 18.6235 9.60005 18.3183 9.60005 18V14.4ZM12 10.8C12.3183 10.8 12.6235 10.9265 12.8486 11.1515C13.0736 11.3765 13.2 11.6818 13.2 12V18C13.2 18.3183 13.0736 18.6235 12.8486 18.8486C12.6235 19.0736 12.3183 19.2 12 19.2C11.6818 19.2 11.3766 19.0736 11.1515 18.8486C10.9265 18.6235 10.8 18.3183 10.8 18V12C10.8 11.6818 10.9265 11.3765 11.1515 11.1515C11.3766 10.9265 11.6818 10.8 12 10.8ZM16.8 9.60002C16.8 9.28176 16.6736 8.97654 16.4486 8.7515C16.2235 8.52645 15.9183 8.40002 15.6 8.40002C15.2818 8.40002 14.9766 8.52645 14.7515 8.7515C14.5265 8.97654 14.4 9.28176 14.4 9.60002V18C14.4 18.3183 14.5265 18.6235 14.7515 18.8486C14.9766 19.0736 15.2818 19.2 15.6 19.2C15.9183 19.2 16.2235 19.0736 16.4486 18.8486C16.6736 18.6235 16.8 18.3183 16.8 18V9.60002Z" fill="#111827"/>
</svg>
