<svg width="23" height="23" viewBox="0 0 23 23" fill="none" xmlns="http://www.w3.org/2000/svg">
<path fill-rule="evenodd" clip-rule="evenodd" d="M3.42126 5.69743C3.42126 5.39559 3.54117 5.10611 3.75461 4.89267C3.96804 4.67923 4.25753 4.55933 4.55937 4.55933H18.2166C18.5185 4.55933 18.808 4.67923 19.0214 4.89267C19.2348 5.10611 19.3548 5.39559 19.3548 5.69743C19.3548 5.99928 19.2348 6.28876 19.0214 6.50219C18.808 6.71563 18.5185 6.83554 18.2166 6.83554H4.55937C4.25753 6.83554 3.96804 6.71563 3.75461 6.50219C3.54117 6.28876 3.42126 5.99928 3.42126 5.69743ZM3.42126 11.388C3.42126 11.0861 3.54117 10.7966 3.75461 10.5832C3.96804 10.3698 4.25753 10.2499 4.55937 10.2499H11.388C11.6899 10.2499 11.9793 10.3698 12.1928 10.5832C12.4062 10.7966 12.5261 11.0861 12.5261 11.388C12.5261 11.6898 12.4062 11.9793 12.1928 12.1927C11.9793 12.4062 11.6899 12.5261 11.388 12.5261H4.55937C4.25753 12.5261 3.96804 12.4062 3.75461 12.1927C3.54117 11.9793 3.42126 11.6898 3.42126 11.388ZM3.42126 17.0785C3.42126 16.7767 3.54117 16.4872 3.75461 16.2737C3.96804 16.0603 4.25753 15.9404 4.55937 15.9404H18.2166C18.5185 15.9404 18.808 16.0603 19.0214 16.2737C19.2348 16.4872 19.3548 16.7767 19.3548 17.0785C19.3548 17.3803 19.2348 17.6698 19.0214 17.8833C18.808 18.0967 18.5185 18.2166 18.2166 18.2166H4.55937C4.25753 18.2166 3.96804 18.0967 3.75461 17.8833C3.54117 17.6698 3.42126 17.3803 3.42126 17.0785Z" fill="#111827"/>
</svg>
